<?xml version="1.0" standalone="no"?>
<!DOCTYPE svg PUBLIC "-//W3C//DTD SVG 20010904//EN"
 "http://www.w3.org/TR/2001/REC-SVG-20010904/DTD/svg10.dtd">
<svg version="1.0" xmlns="http://www.w3.org/2000/svg"
 width="1132.000000pt" height="1132.000000pt" viewBox="0 0 1132.000000 1132.000000"
 preserveAspectRatio="xMidYMid meet">
<metadata>
Created by potrace 1.11, written by Peter Selinger 2001-2013
</metadata>
<g transform="translate(0.000000,1132.000000) scale(0.100000,-0.100000)"
fill="#000000" stroke="none">
<path d="M3464 10611 c-3 -3 -15 -6 -27 -8 -12 -2 -29 -6 -37 -10 -8 -3 -17
-7 -20 -8 -3 -1 -18 -7 -35 -14 -16 -7 -32 -13 -35 -13 -3 -1 -10 -8 -17 -17
-7 -9 -13 -12 -13 -8 0 4 -6 3 -12 -2 -7 -6 -33 -26 -58 -44 l-45 -33 0 -342
c1 -360 -2 -379 -42 -312 -9 17 -21 30 -25 30 -4 0 -8 7 -8 15 0 8 -4 15 -8
15 -4 0 -15 12 -24 28 -9 15 -27 40 -40 56 -115 144 -151 187 -189 227 -42 44
-47 46 -92 44 -61 -4 -126 -42 -160 -94 -41 -61 -42 -81 -7 -121 16 -19 33
-39 38 -45 19 -26 99 -121 120 -144 13 -14 40 -45 60 -68 20 -24 53 -61 72
-82 79 -84 75 -73 41 -127 -44 -73 -55 -125 -36 -170 17 -41 69 -116 138 -197
10 -12 28 -35 40 -51 12 -16 31 -38 42 -49 12 -14 18 -32 16 -51 -2 -25 23
-101 39 -116 28 -27 30 -72 35 -895 3 -462 8 -1096 11 -1410 3 -313 6 -731 7
-927 1 -197 6 -358 10 -358 5 0 5 -5 2 -10 -9 -15 -11 -100 -3 -100 4 0 3 -11
-2 -25 -5 -14 -6 -25 -2 -25 10 0 8 -42 -2 -58 -4 -7 -3 -12 1 -12 10 0 10
-61 0 -77 -4 -6 -4 -14 0 -16 5 -3 8 -132 8 -286 0 -155 4 -281 9 -281 5 0 3
-6 -3 -13 -6 -8 -8 -16 -6 -19 3 -3 7 -179 9 -392 2 -213 6 -390 10 -393 3 -3
1 -13 -4 -23 -5 -10 -7 -20 -5 -22 3 -3 8 -236 11 -519 3 -283 7 -523 9 -534
3 -11 11 -47 20 -80 8 -33 17 -75 20 -94 3 -18 7 -37 10 -41 2 -3 7 -22 10
-41 3 -19 8 -42 11 -51 3 -9 7 -26 9 -37 3 -12 7 -30 9 -41 3 -11 7 -24 10
-28 3 -5 7 -19 9 -33 3 -13 15 -62 27 -109 12 -47 23 -89 24 -95 3 -13 22 -82
42 -160 39 -143 113 -394 122 -413 16 -32 34 -5 57 88 2 8 18 64 35 123 16 60
32 118 34 130 3 12 5 22 6 22 1 0 4 10 13 50 3 11 17 67 32 125 15 58 29 116
31 130 3 14 7 32 11 40 3 8 7 22 8 30 4 20 12 53 29 125 9 33 17 71 20 85 2
14 14 68 26 120 11 52 22 102 23 110 1 8 6 18 11 22 7 5 12 1497 5 1518 -1 3
0 10 1 15 5 24 2 144 -4 153 -3 6 -3 13 1 15 5 3 6 40 3 82 -3 42 -2 79 1 81
4 2 3 20 -1 39 -4 19 -4 37 0 40 4 3 4 21 0 40 -4 19 -4 37 1 40 4 3 6 11 4
18 -10 26 -12 88 -4 93 5 3 5 14 -1 24 -6 11 -6 21 -1 25 6 3 6 17 1 34 -4 16
-6 32 -3 35 6 6 6 63 -1 93 -3 13 0 25 5 28 5 4 7 11 3 16 -5 10 -9 141 -4
164 1 6 2 12 1 15 -6 18 -3 168 3 178 4 7 4 12 -1 12 -4 0 -9 631 -10 1403 -2
771 -4 1435 -5 1475 l-3 73 35 -39 c19 -22 46 -52 60 -68 44 -52 155 -179 160
-184 3 -3 34 -39 70 -80 35 -41 71 -82 80 -91 8 -9 40 -45 70 -80 30 -35 67
-77 82 -94 32 -35 33 -36 123 -139 39 -44 77 -87 85 -96 8 -9 42 -47 75 -85
33 -37 65 -73 70 -79 6 -6 39 -45 75 -86 63 -72 114 -131 135 -154 6 -6 39
-45 75 -86 36 -41 74 -84 85 -95 11 -12 43 -47 70 -80 28 -32 61 -70 75 -84
14 -14 57 -62 95 -106 39 -44 84 -95 102 -115 18 -19 45 -49 60 -66 48 -53
197 -216 218 -238 11 -12 58 -63 105 -115 47 -52 101 -110 120 -130 76 -80 73
-72 55 -141 -18 -71 -17 -142 3 -171 12 -17 60 -48 79 -50 5 -1 18 -5 31 -10
13 -5 47 -12 75 -15 29 -4 64 -13 80 -21 30 -15 102 -85 212 -207 39 -43 81
-90 95 -105 14 -14 45 -50 70 -80 25 -29 56 -66 70 -81 14 -15 43 -49 65 -75
22 -27 45 -53 50 -59 6 -6 28 -33 50 -61 22 -27 43 -51 47 -53 4 -2 17 -20 30
-40 12 -20 28 -41 35 -45 13 -8 59 -91 52 -93 -2 -1 3 -10 12 -20 9 -11 22
-34 30 -51 8 -18 18 -33 22 -33 5 0 5 -4 2 -10 -3 -5 -1 -10 4 -10 6 0 11 -5
11 -11 0 -14 58 -87 94 -119 40 -34 76 -48 115 -44 35 4 90 41 90 62 1 23 21
12 84 -45 74 -67 108 -97 207 -183 41 -36 77 -67 80 -70 3 -3 48 -41 100 -84
52 -43 113 -93 135 -111 22 -18 54 -44 70 -56 17 -13 35 -28 41 -34 51 -45
308 -240 317 -241 7 0 22 8 34 19 22 19 22 19 55 -4 18 -13 38 -28 45 -34 34
-29 73 -54 96 -61 9 -4 17 -10 17 -15 0 -13 28 -11 32 3 4 10 -28 84 -42 98
-3 3 -12 19 -20 35 -8 17 -25 47 -37 67 l-23 38 25 6 c32 8 48 71 21 86 -9 5
-16 15 -16 23 0 7 -3 15 -8 17 -11 4 -112 155 -112 167 0 5 -4 11 -8 13 -8 3
-122 162 -132 183 -6 12 -261 367 -270 375 -6 5 -132 175 -169 228 l-23 33 37
40 c105 117 70 220 -98 283 -26 10 -53 19 -60 20 -82 15 -187 75 -307 175 -56
46 -214 203 -260 257 -14 16 -48 56 -76 89 -28 33 -94 117 -147 187 l-96 127
1 73 c2 157 -37 232 -132 253 -39 9 -155 9 -168 1 -5 -3 -28 18 -52 45 -24 28
-60 68 -79 89 -37 40 -159 174 -189 208 -9 10 -52 57 -95 104 -42 47 -87 97
-100 110 -35 39 -160 177 -182 202 -11 12 -42 47 -70 77 -90 100 -199 220
-218 242 -26 30 -175 193 -214 235 -18 18 -33 35 -33 38 0 2 -15 18 -32 37
-33 33 -187 201 -221 241 -10 12 -51 57 -91 101 -40 44 -102 114 -137 155 -35
41 -72 84 -82 95 -10 11 -51 58 -90 104 -40 47 -81 94 -92 106 -17 19 -108
121 -140 158 -55 64 -143 164 -155 177 -8 9 -44 49 -80 90 -36 40 -74 83 -85
96 -117 130 -155 171 -185 203 -19 20 -59 63 -89 95 l-55 58 22 17 c21 16 39
61 24 61 -4 0 -16 16 -26 35 -11 19 -23 35 -27 35 -16 0 -37 55 -29 75 4 11 5
24 3 28 -3 5 -7 218 -8 473 -2 255 -6 468 -10 474 -21 34 -195 126 -245 129
-55 5 -152 5 -156 2z"/>
<path d="M8167 3213 c-1 -1 -38 -4 -82 -7 -44 -3 -91 -7 -105 -10 -14 -2 -43
-7 -65 -10 -46 -6 -91 -14 -121 -21 -12 -3 -39 -7 -60 -11 -92 -14 -283 -68
-421 -119 -81 -30 -154 -55 -160 -55 -7 0 -13 -4 -13 -8 0 -5 -6 -9 -12 -9
-12 -1 -160 -53 -203 -72 -35 -16 -342 -131 -348 -131 -4 0 -30 -11 -59 -24
-29 -13 -71 -29 -93 -36 -21 -7 -63 -23 -92 -36 -29 -13 -56 -24 -61 -25 -4
-1 -16 -5 -27 -9 -79 -30 -291 -114 -345 -135 -36 -15 -69 -28 -75 -29 -5 -2
-21 -8 -35 -13 -14 -6 -83 -34 -155 -62 -71 -28 -138 -56 -147 -61 -10 -6 -23
-10 -29 -10 -5 0 -35 -11 -65 -25 -30 -14 -57 -25 -60 -25 -3 0 -20 -6 -37
-14 -18 -7 -72 -30 -122 -49 -220 -88 -443 -179 -474 -194 -18 -8 -39 -16 -45
-18 -6 -1 -20 -6 -31 -10 -11 -5 -85 -37 -165 -71 l-145 -62 -17 -67 c-19 -74
-23 -106 -43 -332 -27 -306 -23 -559 9 -591 16 -16 59 -25 176 -37 36 -4 72
-8 81 -10 8 -2 58 -6 110 -10 52 -3 117 -8 144 -11 88 -8 236 -15 380 -19 116
-3 150 -1 200 15 33 10 98 30 145 45 47 14 155 49 240 77 85 28 160 51 165 53
6 1 17 5 25 8 8 3 96 33 195 66 99 33 248 84 330 112 83 28 155 52 160 53 6 1
20 8 33 14 12 7 22 10 22 8 0 -3 20 3 45 14 25 11 45 17 45 13 0 -3 7 0 15 7
8 6 19 9 25 5 5 -3 10 -2 10 3 0 7 63 32 87 33 5 0 13 4 18 8 11 9 66 25 78
23 4 -1 7 2 7 6 0 5 6 9 13 9 7 0 46 13 87 28 41 16 82 30 90 31 8 2 23 7 35
13 11 5 72 28 135 51 63 22 122 43 130 47 8 3 22 7 31 9 9 2 36 12 62 23 25
11 48 17 51 14 3 -4 6 -2 6 4 0 6 12 13 28 16 15 3 45 14 67 23 22 10 45 19
52 20 6 1 85 32 175 68 90 37 167 67 172 69 5 1 44 19 88 40 43 20 82 37 87
37 14 0 74 67 78 86 20 113 19 408 -2 644 -13 147 -17 188 -21 220 -3 19 -7
55 -10 80 -3 25 -14 90 -26 145 -11 55 -21 106 -21 113 0 6 -4 12 -9 12 -4 0
-8 6 -8 13 0 19 -47 60 -59 52 -6 -3 -11 -3 -11 2 0 7 -47 12 -53 6z"/>
</g>
</svg>
